<?xml version="1.0" encoding="UTF-8"?>
<svg data-bbox="50.64 10.03 489.38 821.84" viewBox="0 0 595.28 841.89" xmlns="http://www.w3.org/2000/svg" data-type="ugc">
    <g>
        <linearGradient y2="420.945" x2="540.022" y1="420.945" x1="50.65" gradientUnits="userSpaceOnUse" id="01717712-3b41-4653-8849-28d7636305ee">
            <stop offset="0" stop-color="#ffffff"/>
            <stop offset=".061" stop-color="#fef3f3"/>
            <stop offset=".178" stop-color="#fde1e2"/>
            <stop offset=".321" stop-color="#fcd5d6"/>
            <stop offset=".516" stop-color="#fbcecf"/>
            <stop offset="1" stop-color="#fbcccd"/>
        </linearGradient>
        <path d="M295.34 10.03c18.82 62.14 50.83 164.3 120.45 291.31 72.64 132.52 124.23 221.65 124.23 285.84 0 135.14-109.55 244.69-244.69 244.69S50.64 722.32 50.64 587.18c0-64.19 51.59-153.32 124.23-285.84C244.5 174.33 276.51 72.17 295.34 10.03z" fill-rule="evenodd" clip-rule="evenodd" fill="url(#01717712-3b41-4653-8849-28d7636305ee)" stroke="#fbcccd" stroke-miterlimit="10"/>
        <linearGradient y2="599.407" x2="350.606" y1="709.773" x1="508.225" gradientUnits="userSpaceOnUse" id="c81dd6c8-6524-4992-b652-7564c15665e7">
            <stop offset="0" stop-color="#ffffff"/>
            <stop offset=".002" stop-color="#fffefe"/>
            <stop offset=".115" stop-color="#fde8e9"/>
            <stop offset=".237" stop-color="#fcd8d9"/>
            <stop offset=".376" stop-color="#fbcfd0"/>
            <stop offset=".565" stop-color="#fbcccd"/>
        </linearGradient>
        <path d="M499.12 457.27c9.9 20.35 18.26 39.16 24.79 56.59 10.36 27.68 16.11 51.89 16.11 73.32 0 123.87-92.05 226.25-211.48 242.45-10.86 1.47-1.34-121.29-1.34-121.29l171.92-251.07z" fill="url(#c81dd6c8-6524-4992-b652-7564c15665e7)"/>
        <path fill="#efeded" stroke="#cccaca" stroke-miterlimit="10" d="M233.63 811.72l-.47-9.97 82.17-15.88.47 9.97-82.17 15.88z"/>
        <path fill="#efeded" stroke="#cccaca" stroke-miterlimit="10" d="M316.97 795.61l-.48-9.97 83.21-16.09.48 9.98-83.21 16.08z"/>
        <path fill="#efeded" stroke="#cccaca" stroke-miterlimit="10" d="M274.89 751.43l-.48-9.97 42.64-8.24.48 9.97-42.64 8.24z"/>
        <path fill="#efeded" stroke="#cccaca" stroke-miterlimit="10" d="M318.57 742.99l-.48-9.98 48.89-9.45.47 9.97-48.88 9.46z"/>
        <path fill="#efeded" stroke="#cccaca" stroke-miterlimit="10" d="M205.17 523.93l-.48-9.97 82.17-15.88.48 9.97-82.17 15.88z"/>
        <path fill="#efeded" stroke="#cccaca" stroke-miterlimit="10" d="M288.5 507.82l-.47-9.97 83.2-16.09.48 9.97-83.21 16.09z"/>
        <path fill="#efeded" stroke="#cccaca" stroke-miterlimit="10" d="M308.8 562.28l-.47-9.97 84.24-16.29.48 9.98-84.25 16.28z"/>
        <path fill="#efeded" stroke="#cccaca" stroke-miterlimit="10" d="M217.4 579.96l-.48-9.98 90.15-17.42.47 9.97-90.14 17.43z"/>
        <path fill="#efeded" stroke="#cccaca" stroke-miterlimit="10" d="M251.73 632.2l-.48-9.98 61.36-11.86.48 9.97-61.36 11.87z"/>
        <path fill="#efeded" stroke="#cccaca" stroke-miterlimit="10" d="M314.26 620.11l-.48-9.98 62.41-12.06.47 9.97-62.4 12.07z"/>
        <path fill="#efeded" stroke="#cccaca" stroke-miterlimit="10" d="M235.97 464.7l-.47-9.97 42.64-8.24.48 9.97-42.65 8.24z"/>
        <path fill="#efeded" stroke="#cccaca" stroke-miterlimit="10" d="M279.66 456.26l-.48-9.98 48.89-9.45.47 9.97-48.88 9.46z"/>
        <path fill="#efeded" stroke="#cccaca" stroke-miterlimit="10" d="M215.35 350.97l-.47-9.98 62.4-12.06.48 9.97-62.41 12.07z"/>
        <path fill="#efeded" stroke="#cccaca" stroke-miterlimit="10" d="M278.4 338.78l-.47-9.98 62.4-12.06.48 9.97-62.41 12.07z"/>
        <path fill="#efeded" stroke="#cccaca" stroke-miterlimit="10" d="M286.47 278.34l-.48-9.97 84.25-16.29.48 9.97-84.25 16.29z"/>
        <path fill="#efeded" stroke="#cccaca" stroke-miterlimit="10" d="M195.07 296.01l-.48-9.97 90.14-17.43.48 9.97-90.14 17.43z"/>
        <path d="M202.08 527.89c-3.76-85.52 156.44-208.34 172.71-303.29l2.1 4.15.84 4.23c4.62 96.62-178.35 232.42-174.34 323.66l-1.31-28.75z" fill="#d2d2d2" stroke="#a09e9f" stroke-miterlimit="10"/>
        <path d="M396.49 548.75c3.35 76.18-119.53 184.51-162.95 272.26-.74 1.5-3.12.49-5.6-.29s-5.15-1.09-5.04-1.58c21.58-94.12 175.76-215.36 172.08-299.08l1.51 28.69z" fill="#d2d2d2" stroke="#a09e9f" stroke-miterlimit="10"/>
        <path d="M395.25 522.89c-4.71-91.09-197.55-154.13-202.18-250.86l1.37 28.73c4.62 96.62 197.33 159.78 202.04 250.89l-1.23-28.76z" fill="#d2d2d2" stroke="#a09e9f" stroke-miterlimit="10"/>
        <path d="M203.32 553.75c4.71 91.09 197.13 154.21 201.76 250.94l-1.37-28.73c-4.62-96.62-197.12-159.82-201.83-250.93l1.44 28.72z" fill="#d2d2d2" stroke="#a09e9f" stroke-miterlimit="10"/>
        <path d="M87 495.5v-6.81h21.84v8.99h-1.88L87 495.5zm24.79 80.4l19.97 2.17v6.81H87v-6.81l19.97-2.17h4.82zm-12.34-42.26c0-14.94 0-30.02-.44-44.95h19.67c-.44 14.65-.44 29.73-.44 44.95v8.84c0 13.3 0 27.46.44 42.4H99.01c.44-14.65.44-29.73.44-44.95v-6.29zm24.71 13.83h-15.31v-7.42h16.48c15.28 0 21.92-9.16 21.92-22.67 0-13.69-7.46-21.17-22.5-21.17h-15.9v-7.52h17.38c27.21 0 39.38 11.62 39.38 28.75-.01 16.4-10.91 30.03-41.45 30.03z" fill="#3e5fa2"/>
        <path d="M182.94 554.43v-7.67c0-7.98-.15-11.67-.44-17.47l-10.22-1.3v-5.39l24.24-9.18 2.33 1.5 1.53 17.97v21.55c0 8.99.15 23.93.44 30.45H182.5c.29-6.53.44-21.47.44-30.46zm-9.49 24.53l14.89-2.9h9.18l14.89 2.9v5.93h-38.95v-5.93zm18.64-43.89h9.6l-2.77 2.5c3.58-15.67 13.06-24.16 21.67-24.16 5.27 0 9.99 2.78 11.47 7.86-.16 7.19-3.57 11.22-9.37 11.22-3.87 0-6.94-1.73-9.98-5.13l-4.07-4.45 6.47.36c-7.07 4.21-12.29 11.68-14.88 21.57l-8.12-.53v-9.24z" fill="#3e5fa2"/>
        <path d="M238.01 550.17c0-23.17 16.23-36.75 34.98-36.75 18.57 0 34.98 13.43 34.98 36.75 0 23.33-15.5 36.76-34.98 36.76-19.71 0-34.98-13.6-34.98-36.76zm51.05.16c0-20.02-5.75-29.86-16.07-29.86-10.51 0-16.07 9.84-16.07 29.86 0 20.07 5.56 29.54 16.07 29.54 10.32 0 16.07-9.47 16.07-29.54z" fill="#3e5fa2"/>
        <path d="M319 495.5v-6.81h21.84v8.99h-1.88L319 495.5zm21.84 80.4v8.99H319v-6.81l19.97-2.17h1.87zm-9.39-41.94c0-15.04 0-30.23-.44-45.27h19.46c-.44 14.75-.44 29.94-.44 45.27v4.28c0 16.47 0 31.61.44 46.65h-19.46c.44-14.75.44-29.89.44-45.22v-5.71zm9.39-2.64h15.1c15.01 0 21.69-5.82 21.69-18.2 0-12.01-6.46-16.92-19.59-16.92h-17.2v-7.52h22.52c22.26 0 32.64 9.75 32.64 23.09 0 11.04-7.24 20.62-28.66 23.16v-1.3c24.16 1.72 33.87 11.34 33.87 24.61 0 12.66-9.86 26.64-41.69 26.64h-18.69v-7.52h16.38c16.08 0 24.53-6.73 24.53-19.23 0-13.33-7.83-19.61-25.15-19.61h-15.75v-7.2z" fill="#3e5fa2"/>
        <path d="M420.15 584.88c.29-6.53.43-21.46.43-30.45v-6.87c0-7.98-.14-12.47-.43-18.27l-10.4-1.3v-5.39l26.21-9.18 2.33 1.5-.44 20.32v19.19c0 8.99.15 23.93.44 30.45h-18.14zm26.69-5.92v5.93h-35.96v-5.93l14.67-2.9h7l14.29 2.9zm-28.78-89.42c0-6.15 4.84-10.36 10.95-10.36s10.95 4.21 10.95 10.36c0 6.06-4.84 10.36-10.95 10.36s-10.95-4.3-10.95-10.36z" fill="#3e5fa2"/>
        <path d="M456.09 550.17c0-23.17 16.23-36.75 34.98-36.75 18.57 0 34.98 13.43 34.98 36.75 0 23.33-15.5 36.76-34.98 36.76-19.72 0-34.98-13.6-34.98-36.76zm51.05.16c0-20.02-5.75-29.86-16.07-29.86-10.51 0-16.07 9.84-16.07 29.86 0 20.07 5.56 29.54 16.07 29.54 10.32 0 16.07-9.47 16.07-29.54z" fill="#3e5fa2"/>
    </g>
</svg>
